<mxfile host="65bd71144e">
    <diagram id="rZyf9QBQW9R7tQe5ma15" name="Page-1">
        <mxGraphModel dx="1002" dy="563" grid="1" gridSize="10" guides="1" tooltips="1" connect="1" arrows="1" fold="1" page="1" pageScale="1" pageWidth="850" pageHeight="1100" math="0" shadow="0">
            <root>
                <mxCell id="0"/>
                <mxCell id="1" parent="0"/>
                <mxCell id="4" value="Client&lt;br&gt;Dimension" style="whiteSpace=wrap;html=1;align=center;" vertex="1" parent="1">
                    <mxGeometry x="80" y="160" width="100" height="40" as="geometry"/>
                </mxCell>
                <mxCell id="5" value="Product Dimension&lt;br&gt;" style="whiteSpace=wrap;html=1;align=center;" vertex="1" parent="1">
                    <mxGeometry x="80" y="50" width="100" height="40" as="geometry"/>
                </mxCell>
                <mxCell id="6" value="Market Dimension&lt;br&gt;" style="whiteSpace=wrap;html=1;align=center;" vertex="1" parent="1">
                    <mxGeometry x="320" y="160" width="100" height="40" as="geometry"/>
                </mxCell>
                <mxCell id="7" value="User&lt;br&gt;Dimension&lt;br&gt;" style="whiteSpace=wrap;html=1;align=center;" vertex="1" parent="1">
                    <mxGeometry x="80" y="280" width="100" height="40" as="geometry"/>
                </mxCell>
            </root>
        </mxGraphModel>
    </diagram>
</mxfile>